<?xml version="1.0" encoding="UTF-8"?>
<svg width="137px" height="15px" viewBox="0 0 137 15" version="1.1" xmlns="http://www.w3.org/2000/svg" xmlns:xlink="http://www.w3.org/1999/xlink">
    <!-- Generator: Sketch 46.2 (44496) - http://www.bohemiancoding.com/sketch -->
    <title>mail@eko-tech.ru</title>
    <desc>Created with Sketch.</desc>
    <defs></defs>
    <g id="Page-1" stroke="none" stroke-width="1" fill="none" fill-rule="evenodd">
        <g id="Экотех_1200" transform="translate(-1027.000000, -4942.000000)" fill="#4A4A4A">
            <g id="Group-9" transform="translate(29.000000, 4902.000000)">
                <g id="Group-7">
                    <path d="M1009.49219,53 L1009.49219,47.4296875 C1009.49219,46.7473924 1009.34636,46.2356788 1009.05469,45.8945312 C1008.76302,45.5533837 1008.3099,45.3828125 1007.69531,45.3828125 C1006.88802,45.3828125 1006.29167,45.614581 1005.90625,46.078125 C1005.52083,46.541669 1005.32812,47.2552035 1005.32812,48.21875 L1005.32812,53 L1004.03125,53 L1004.03125,47.4296875 C1004.03125,46.7473924 1003.88542,46.2356788 1003.59375,45.8945312 C1003.30208,45.5533837 1002.84636,45.3828125 1002.22656,45.3828125 C1001.41406,45.3828125 1000.81901,45.6262996 1000.44141,46.1132812 C1000.0638,46.6002629 999.875,47.398432 999.875,48.5078125 L999.875,53 L998.578125,53 L998.578125,44.4375 L999.632812,44.4375 L999.84375,45.609375 L999.90625,45.609375 C1000.15104,45.1927063 1000.49609,44.8671887 1000.94141,44.6328125 C1001.38672,44.3984363 1001.88541,44.28125 1002.4375,44.28125 C1003.77605,44.28125 1004.65104,44.7656202 1005.0625,45.734375 L1005.125,45.734375 C1005.38021,45.2864561 1005.75,44.932293 1006.23438,44.671875 C1006.71875,44.411457 1007.27083,44.28125 1007.89062,44.28125 C1008.85938,44.28125 1009.58463,44.5299454 1010.06641,45.0273438 C1010.54818,45.5247421 1010.78906,46.320307 1010.78906,47.4140625 L1010.78906,53 L1009.49219,53 Z M1019.22656,53 L1018.96875,51.78125 L1018.90625,51.78125 C1018.47916,52.317711 1018.05339,52.6809886 1017.62891,52.8710938 C1017.20442,53.0611989 1016.67448,53.15625 1016.03906,53.15625 C1015.1901,53.15625 1014.52474,52.9375022 1014.04297,52.5 C1013.5612,52.0624978 1013.32031,51.4401082 1013.32031,50.6328125 C1013.32031,48.9036372 1014.70311,47.9973963 1017.46875,47.9140625 L1018.92188,47.8671875 L1018.92188,47.3359375 C1018.92188,46.6640591 1018.77735,46.1679704 1018.48828,45.8476562 C1018.19922,45.5273421 1017.73698,45.3671875 1017.10156,45.3671875 C1016.38802,45.3671875 1015.58073,45.5859353 1014.67969,46.0234375 L1014.28125,45.03125 C1014.70313,44.8020822 1015.16536,44.6223965 1015.66797,44.4921875 C1016.17058,44.3619785 1016.67448,44.296875 1017.17969,44.296875 C1018.20053,44.296875 1018.95703,44.5234352 1019.44922,44.9765625 C1019.94141,45.4296898 1020.1875,46.156245 1020.1875,47.15625 L1020.1875,53 L1019.22656,53 Z M1016.29688,52.0859375 C1017.10417,52.0859375 1017.73828,51.8645855 1018.19922,51.421875 C1018.66016,50.9791645 1018.89062,50.359379 1018.89062,49.5625 L1018.89062,48.7890625 L1017.59375,48.84375 C1016.56249,48.8802085 1015.81901,49.0403632 1015.36328,49.3242188 C1014.90755,49.6080743 1014.67969,50.0494762 1014.67969,50.6484375 C1014.67969,51.1171898 1014.82161,51.4739571 1015.10547,51.71875 C1015.38932,51.9635429 1015.78646,52.0859375 1016.29688,52.0859375 Z M1024.65625,53 L1023.35938,53 L1023.35938,44.4375 L1024.65625,44.4375 L1024.65625,53 Z M1023.25,42.1171875 C1023.25,41.820311 1023.32292,41.6028653 1023.46875,41.4648438 C1023.61458,41.3268222 1023.79687,41.2578125 1024.01562,41.2578125 C1024.22396,41.2578125 1024.40365,41.3281243 1024.55469,41.46875 C1024.70573,41.6093757 1024.78125,41.8255194 1024.78125,42.1171875 C1024.78125,42.4088556 1024.70573,42.6263014 1024.55469,42.7695312 C1024.40365,42.9127611 1024.22396,42.984375 1024.01562,42.984375 C1023.79687,42.984375 1023.61458,42.9127611 1023.46875,42.7695312 C1023.32292,42.6263014 1023.25,42.4088556 1023.25,42.1171875 Z M1029.20312,53 L1027.90625,53 L1027.90625,40.84375 L1029.20312,40.84375 L1029.20312,53 Z M1044.51562,47.3046875 C1044.51562,48.0442745 1044.40104,48.7213511 1044.17188,49.3359375 C1043.94271,49.9505239 1043.61979,50.4270816 1043.20312,50.765625 C1042.78646,51.1041684 1042.30729,51.2734375 1041.76562,51.2734375 C1041.31771,51.2734375 1040.94011,51.1380222 1040.63281,50.8671875 C1040.32552,50.5963528 1040.14323,50.2500021 1040.08594,49.828125 L1040.02344,49.828125 C1039.8151,50.2812523 1039.51693,50.6354154 1039.12891,50.890625 C1038.74088,51.1458346 1038.28125,51.2734375 1037.75,51.2734375 C1036.96875,51.2734375 1036.35808,51.0065131 1035.91797,50.4726562 C1035.47786,49.9387994 1035.25781,49.2135463 1035.25781,48.296875 C1035.25781,47.2343697 1035.5651,46.3710971 1036.17969,45.7070312 C1036.79427,45.0429654 1037.60156,44.7109375 1038.60156,44.7109375 C1038.95573,44.7109375 1039.35677,44.7434893 1039.80469,44.8085938 C1040.25261,44.8736982 1040.65625,44.9635411 1041.01562,45.078125 L1040.82031,48.75 L1040.82031,48.921875 C1040.82031,49.848963 1041.16666,50.3125 1041.85938,50.3125 C1042.33334,50.3125 1042.71875,50.0325549 1043.01562,49.4726562 C1043.3125,48.9127576 1043.46094,48.1849003 1043.46094,47.2890625 C1043.46094,46.3463495 1043.26823,45.5208369 1042.88281,44.8125 C1042.49739,44.1041631 1041.94922,43.5585957 1041.23828,43.1757812 C1040.52734,42.7929668 1039.71094,42.6015625 1038.78906,42.6015625 C1037.6276,42.6015625 1036.61719,42.8424455 1035.75781,43.3242188 C1034.89843,43.805992 1034.24219,44.4934851 1033.78906,45.3867188 C1033.33594,46.2799524 1033.10938,47.3124941 1033.10938,48.484375 C1033.10938,50.0729246 1033.52864,51.2942666 1034.36719,52.1484375 C1035.20573,53.0026084 1036.41405,53.4296875 1037.99219,53.4296875 C1039.08594,53.4296875 1040.22135,53.2057314 1041.39844,52.7578125 L1041.39844,53.796875 C1040.39843,54.2343772 1039.26303,54.453125 1037.99219,54.453125 C1036.10155,54.453125 1034.63412,53.9335989 1033.58984,52.8945312 C1032.54557,51.8554636 1032.02344,50.4036552 1032.02344,48.5390625 C1032.02344,47.1848891 1032.30208,45.979172 1032.85938,44.921875 C1033.41667,43.864578 1034.21093,43.0455758 1035.24219,42.4648438 C1036.27344,41.8841117 1037.45572,41.59375 1038.78906,41.59375 C1039.90886,41.59375 1040.90494,41.8294247 1041.77734,42.3007812 C1042.64974,42.7721378 1043.32422,43.4414019 1043.80078,44.3085938 C1044.27735,45.1757856 1044.51562,46.1744735 1044.51562,47.3046875 Z M1036.4375,48.328125 C1036.4375,49.6510483 1036.94531,50.3125 1037.96094,50.3125 C1039.03907,50.3125 1039.625,49.497404 1039.71875,47.8671875 L1039.82812,45.828125 C1039.45312,45.7239578 1039.04427,45.671875 1038.60156,45.671875 C1037.92448,45.671875 1037.39453,45.9062477 1037.01172,46.375 C1036.6289,46.8437523 1036.4375,47.4947875 1036.4375,48.328125 Z M1050.95312,53.15625 C1049.68749,53.15625 1048.68881,52.7708372 1047.95703,52 C1047.22526,51.2291628 1046.85938,50.158861 1046.85938,48.7890625 C1046.85938,47.4088473 1047.19922,46.3125041 1047.87891,45.5 C1048.5586,44.6874959 1049.47135,44.28125 1050.61719,44.28125 C1051.69011,44.28125 1052.53906,44.6341111 1053.16406,45.3398438 C1053.78907,46.0455764 1054.10156,46.9765567 1054.10156,48.1328125 L1054.10156,48.953125 L1048.20312,48.953125 C1048.22917,49.9583384 1048.48307,50.7213516 1048.96484,51.2421875 C1049.44662,51.7630234 1050.125,52.0234375 1051,52.0234375 C1051.92188,52.0234375 1052.83333,51.8307311 1053.73438,51.4453125 L1053.73438,52.6015625 C1053.27604,52.7994802 1052.84245,52.9414058 1052.43359,53.0273438 C1052.02474,53.1132817 1051.53125,53.15625 1050.95312,53.15625 Z M1050.60156,45.3671875 C1049.91406,45.3671875 1049.36589,45.5911436 1048.95703,46.0390625 C1048.54818,46.4869814 1048.30729,47.1067669 1048.23438,47.8984375 L1052.71094,47.8984375 C1052.71094,47.0807251 1052.52865,46.4544293 1052.16406,46.0195312 C1051.79948,45.5846332 1051.27865,45.3671875 1050.60156,45.3671875 Z M1058.09375,48.6171875 C1058.31771,48.2994776 1058.65885,47.8828151 1059.11719,47.3671875 L1061.88281,44.4375 L1063.42188,44.4375 L1059.95312,48.0859375 L1063.66406,53 L1062.09375,53 L1059.07031,48.953125 L1058.09375,49.796875 L1058.09375,53 L1056.8125,53 L1056.8125,40.84375 L1058.09375,40.84375 L1058.09375,47.2890625 C1058.09375,47.5755223 1058.07292,48.0182262 1058.03125,48.6171875 L1058.09375,48.6171875 Z M1072.78125,48.7109375 C1072.78125,50.1067778 1072.42969,51.1966107 1071.72656,51.9804688 C1071.02343,52.7643268 1070.05209,53.15625 1068.8125,53.15625 C1068.04687,53.15625 1067.36719,52.9765643 1066.77344,52.6171875 C1066.17968,52.2578107 1065.72136,51.7421909 1065.39844,51.0703125 C1065.07552,50.3984341 1064.91406,49.6119837 1064.91406,48.7109375 C1064.91406,47.3150972 1065.26302,46.2278685 1065.96094,45.4492188 C1066.65886,44.670569 1067.6276,44.28125 1068.86719,44.28125 C1070.06511,44.28125 1071.01692,44.6796835 1071.72266,45.4765625 C1072.42839,46.2734415 1072.78125,47.3515557 1072.78125,48.7109375 Z M1066.25781,48.7109375 C1066.25781,49.804693 1066.47656,50.638018 1066.91406,51.2109375 C1067.35156,51.783857 1067.99479,52.0703125 1068.84375,52.0703125 C1069.69271,52.0703125 1070.33724,51.7851591 1070.77734,51.2148438 C1071.21745,50.6445284 1071.4375,49.8099013 1071.4375,48.7109375 C1071.4375,47.6223904 1071.21745,46.7955757 1070.77734,46.2304688 C1070.33724,45.6653618 1069.6875,45.3828125 1068.82812,45.3828125 C1067.97916,45.3828125 1067.33854,45.6614555 1066.90625,46.21875 C1066.47396,46.7760445 1066.25781,47.6067653 1066.25781,48.7109375 Z M1074.83594,49.3046875 L1074.83594,48.1171875 L1078.67188,48.1171875 L1078.67188,49.3046875 L1074.83594,49.3046875 Z M1083.96875,52.0859375 C1084.19792,52.0859375 1084.41927,52.0690106 1084.63281,52.0351562 C1084.84636,52.0013019 1085.01562,51.966146 1085.14062,51.9296875 L1085.14062,52.921875 C1085,52.9895837 1084.79297,53.0455727 1084.51953,53.0898438 C1084.24609,53.1341148 1084,53.15625 1083.78125,53.15625 C1082.12499,53.15625 1081.29688,52.2838629 1081.29688,50.5390625 L1081.29688,45.4453125 L1080.07031,45.4453125 L1080.07031,44.8203125 L1081.29688,44.28125 L1081.84375,42.453125 L1082.59375,42.453125 L1082.59375,44.4375 L1085.07812,44.4375 L1085.07812,45.4453125 L1082.59375,45.4453125 L1082.59375,50.484375 C1082.59375,51.0000026 1082.71614,51.395832 1082.96094,51.671875 C1083.20573,51.947918 1083.54166,52.0859375 1083.96875,52.0859375 Z M1090.96875,53.15625 C1089.70312,53.15625 1088.70443,52.7708372 1087.97266,52 C1087.24088,51.2291628 1086.875,50.158861 1086.875,48.7890625 C1086.875,47.4088473 1087.21484,46.3125041 1087.89453,45.5 C1088.57422,44.6874959 1089.48697,44.28125 1090.63281,44.28125 C1091.70573,44.28125 1092.55468,44.6341111 1093.17969,45.3398438 C1093.80469,46.0455764 1094.11719,46.9765567 1094.11719,48.1328125 L1094.11719,48.953125 L1088.21875,48.953125 C1088.24479,49.9583384 1088.4987,50.7213516 1088.98047,51.2421875 C1089.46224,51.7630234 1090.14062,52.0234375 1091.01562,52.0234375 C1091.9375,52.0234375 1092.84895,51.8307311 1093.75,51.4453125 L1093.75,52.6015625 C1093.29166,52.7994802 1092.85807,52.9414058 1092.44922,53.0273438 C1092.04036,53.1132817 1091.54688,53.15625 1090.96875,53.15625 Z M1090.61719,45.3671875 C1089.92968,45.3671875 1089.38151,45.5911436 1088.97266,46.0390625 C1088.5638,46.4869814 1088.32292,47.1067669 1088.25,47.8984375 L1092.72656,47.8984375 C1092.72656,47.0807251 1092.54427,46.4544293 1092.17969,46.0195312 C1091.8151,45.5846332 1091.29427,45.3671875 1090.61719,45.3671875 Z M1100.25,53.15625 C1099.01041,53.15625 1098.05078,52.7747434 1097.37109,52.0117188 C1096.6914,51.2486941 1096.35156,50.1692778 1096.35156,48.7734375 C1096.35156,47.3411387 1096.69661,46.2343789 1097.38672,45.453125 C1098.07683,44.6718711 1099.05989,44.28125 1100.33594,44.28125 C1100.7474,44.28125 1101.15885,44.3255204 1101.57031,44.4140625 C1101.98177,44.5026046 1102.30469,44.6067702 1102.53906,44.7265625 L1102.14062,45.828125 C1101.85417,45.7135411 1101.54167,45.61849 1101.20312,45.5429688 C1100.86458,45.4674475 1100.56511,45.4296875 1100.30469,45.4296875 C1098.5651,45.4296875 1097.69531,46.5390514 1097.69531,48.7578125 C1097.69531,49.8099011 1097.90755,50.6171847 1098.33203,51.1796875 C1098.75651,51.7421903 1099.38541,52.0234375 1100.21875,52.0234375 C1100.9323,52.0234375 1101.66406,51.8697932 1102.41406,51.5625 L1102.41406,52.7109375 C1101.84114,53.007814 1101.1198,53.15625 1100.25,53.15625 Z M1110.80469,53 L1110.80469,47.4609375 C1110.80469,46.7630173 1110.64583,46.2421892 1110.32812,45.8984375 C1110.01042,45.5546858 1109.51302,45.3828125 1108.83594,45.3828125 C1107.93489,45.3828125 1107.27735,45.6276017 1106.86328,46.1171875 C1106.44922,46.6067733 1106.24219,47.4088486 1106.24219,48.5234375 L1106.24219,53 L1104.94531,53 L1104.94531,40.84375 L1106.24219,40.84375 L1106.24219,44.5234375 C1106.24219,44.966148 1106.22135,45.3333319 1106.17969,45.625 L1106.25781,45.625 C1106.51302,45.2135396 1106.8763,44.8893241 1107.34766,44.6523438 C1107.81901,44.4153634 1108.35677,44.296875 1108.96094,44.296875 C1110.00782,44.296875 1110.79297,44.5455704 1111.31641,45.0429688 C1111.83985,45.5403671 1112.10156,46.3307238 1112.10156,47.4140625 L1112.10156,53 L1110.80469,53 Z M1115.07812,52.171875 C1115.07812,51.8229149 1115.15755,51.5585946 1115.31641,51.3789062 C1115.47526,51.1992179 1115.70312,51.109375 1116,51.109375 C1116.30208,51.109375 1116.53776,51.1992179 1116.70703,51.3789062 C1116.8763,51.5585946 1116.96094,51.8229149 1116.96094,52.171875 C1116.96094,52.5104184 1116.875,52.7708324 1116.70312,52.953125 C1116.53125,53.1354176 1116.29688,53.2265625 1116,53.2265625 C1115.73437,53.2265625 1115.51432,53.1445321 1115.33984,52.9804688 C1115.16536,52.8164054 1115.07812,52.5468769 1115.07812,52.171875 Z M1123.92969,44.28125 C1124.3099,44.28125 1124.65104,44.3124997 1124.95312,44.375 L1124.77344,45.578125 C1124.41927,45.4999996 1124.10677,45.4609375 1123.83594,45.4609375 C1123.14323,45.4609375 1122.55078,45.7421847 1122.05859,46.3046875 C1121.5664,46.8671903 1121.32031,47.5677041 1121.32031,48.40625 L1121.32031,53 L1120.02344,53 L1120.02344,44.4375 L1121.09375,44.4375 L1121.24219,46.0234375 L1121.30469,46.0234375 C1121.6224,45.466143 1122.00521,45.0364598 1122.45312,44.734375 C1122.90104,44.4322902 1123.39323,44.28125 1123.92969,44.28125 Z M1128.27344,44.4375 L1128.27344,49.9921875 C1128.27344,50.6901077 1128.43229,51.2109358 1128.75,51.5546875 C1129.06771,51.8984392 1129.5651,52.0703125 1130.24219,52.0703125 C1131.13803,52.0703125 1131.79297,51.8255233 1132.20703,51.3359375 C1132.6211,50.8463517 1132.82812,50.0468805 1132.82812,48.9375 L1132.82812,44.4375 L1134.125,44.4375 L1134.125,53 L1133.05469,53 L1132.86719,51.8515625 L1132.79688,51.8515625 C1132.53125,52.2734396 1132.16276,52.596353 1131.69141,52.8203125 C1131.22005,53.044272 1130.68229,53.15625 1130.07812,53.15625 C1129.03645,53.15625 1128.25651,52.9088566 1127.73828,52.4140625 C1127.22005,51.9192684 1126.96094,51.1276096 1126.96094,50.0390625 L1126.96094,44.4375 L1128.27344,44.4375 Z" id="mail@eko-tech.ru"></path>
                </g>
            </g>
        </g>
    </g>
</svg>