<?xml version="1.0" encoding="UTF-8"?>
<svg width="157px" height="55px" viewBox="0 0 157 55" version="1.1" xmlns="http://www.w3.org/2000/svg" xmlns:xlink="http://www.w3.org/1999/xlink">
    <!-- Generator: Sketch 46.2 (44496) - http://www.bohemiancoding.com/sketch -->
    <title>logo</title>
    <desc>Created with Sketch.</desc>
    <defs></defs>
    <g id="Page-1" stroke="none" stroke-width="1" fill="none" fill-rule="evenodd">
        <g id="Экотех_1200" transform="translate(-31.000000, -28.000000)">
            <g id="Group-18" transform="translate(31.000000, 28.000000)">
                <g id="logo">
                    <path d="M7.29068069,46.9161647 C8.52236945,44.9076593 8.5741738,42.2957511 7.22614228,40.1897956 L1.1563542,30.7060643 L1.33147445,30.5941354 L7.40126253,40.0778666 C8.73808966,42.1668355 8.74184994,44.7374227 7.61337894,46.7748793 C9.00315474,44.6636126 9.09973968,41.854112 7.65463035,39.6004027 L1.32391267,29.7270323 L1.50629974,29.6107049 L7.83701742,39.4840753 C9.20958711,41.6245824 9.23555093,44.2510146 8.11436823,46.3552773 C9.49080304,44.1747173 9.56215314,41.3139085 8.08292168,39.0109752 L1.49159849,28.7484285 L1.68132176,28.6273091 L8.27280699,38.8900872 C9.64317695,41.0235124 9.72495015,43.6210407 8.70113023,45.7586992 C9.987154,43.5214242 10.0039069,40.6688393 8.52282263,38.3568567 L1.67639771,27.6716194 L1.8736886,27.5455459 L8.72007883,38.23098 C10.1226392,40.4199827 10.2246957,43.0784944 9.20836126,45.2864422 C10.4805113,42.9771429 10.4742158,40.0677526 8.96249216,37.7029002 L1.86116223,26.595007 L2.06605544,26.4637828 L9.16735067,37.5718728 C10.6004231,39.813317 10.7236186,42.5291089 9.7181484,44.8042906 C10.9730808,42.4258257 10.9426495,39.4634953 9.40235842,37.0489784 L2.04596145,25.5181979 L2.25842227,25.3820197 L9.61462251,36.9127655 C11.2722133,39.511058 11.2370758,42.7233023 9.77102359,45.2280393 C11.5625716,42.6443799 11.7233676,39.1416986 9.93210001,36.3443688 L2.24701774,24.3434382 L2.46852739,24.2019586 L10.1536097,36.2028892 C11.8576143,38.863527 11.8513474,42.1421231 10.3942867,44.7281661 C12.1693901,42.0594523 12.2976131,38.4964605 10.4618416,35.6397593 L2.4478426,23.1688406 L2.67863251,23.0218975 L10.6926315,35.4928162 C12.4026769,38.1537078 12.4625195,41.4082589 11.1128569,44.0432611 C12.7858474,41.3013664 12.8485715,37.7428506 11.0031234,34.8708521 L2.66590821,21.8964658 L2.90608245,21.7434691 L11.2431009,34.7178207 C12.9948043,37.4438704 13.0820715,40.7683725 11.743611,43.487099 C13.3977382,40.658912 13.429312,37.0354681 11.5442432,34.1017135 L2.88400851,20.6238943 L3.13353239,20.4650407 L11.7935704,33.9428253 C13.5499036,36.6759797 13.6954475,39.9886467 12.4531946,42.7553735 C14.0166888,39.8556242 13.9905619,36.2246432 12.0967412,33.268046 L3.11934955,19.2535457 L3.3781304,19.0882103 L12.3555221,33.1027106 C14.3809257,36.2644671 14.3378423,40.1729163 12.5459533,43.2163796 C14.7206084,40.0844155 14.911123,35.8402785 12.7279331,32.4482543 L3.35351018,17.8829889 L3.62331862,17.7114839 L12.9977415,32.2767493 C15.0387575,35.44775 15.0711698,39.3398947 13.3931617,42.4484713 C15.4577513,39.2263046 15.5725477,34.9801761 13.3705031,31.5639337 L3.60491157,16.414655 L3.88585166,16.2363902 L13.6514432,31.3856689 C15.7074249,34.5753336 15.8077434,38.4654553 14.2328543,41.6415075 C16.1980709,38.3271693 16.2452015,34.0644439 14.0244167,30.6152808 L3.87355369,14.848544 L4.1657295,14.6629292 L14.3165925,30.429666 C16.4217099,33.6996012 16.5536216,37.6774485 14.9913027,40.9559257 C16.9347486,37.5361202 16.9456928,33.192162 14.6783302,29.6666279 L4.14219582,13.2824329 L4.44560735,13.0894682 L14.9817418,29.4736631 C17.3259498,33.1190413 17.3119365,37.6115541 15.2980888,41.1453222 C17.7661229,37.4930479 17.9543821,32.5933032 15.4225126,28.6673566 L4.42689829,11.6183367 L4.74322348,11.4177092 L15.7386411,28.4666944 C18.1083933,32.1409189 18.1710941,36.6412786 16.2652282,40.2598107 C18.62736,36.4971741 18.7383124,31.5722357 16.1777144,27.6032902 L4.7288415,9.85646324 L5.05818443,9.64758287 L16.5070226,27.3946066 C18.9368019,31.1609617 19.0373234,35.7608962 17.1451986,39.4970707 C19.483081,35.6131131 19.5506591,30.5959375 16.9332749,26.5394899 L5.0308194,8.09439309 L5.37294864,7.87742187 L17.2753695,26.3227154 C19.7263652,30.1206022 19.8977345,34.7340433 18.1094482,38.5520199 C20.3458263,34.5615183 20.341802,29.5132578 17.700017,25.411126 L5.34980662,6.23470786 L5.70525441,6.00892823 L18.0552333,25.1855084 C21.9025733,31.1593335 20.3334477,39.0758216 14.4980571,43.1331803 L14.4849315,43.1144349 C14.2806789,43.2753884 14.0704658,43.4310309 13.8541302,43.5811312 L13.8291059,43.5458853 C13.6304768,43.7025562 13.4258179,43.8543097 13.2151985,44.0007524 L13.1897575,43.9644187 C12.9914179,44.1217492 12.7869557,44.2735374 12.5763016,44.4201768 L12.5385104,44.3664516 C12.3459217,44.5199277 12.1471758,44.6680583 11.9425041,44.8106812 L11.9275612,44.7895869 C11.7541109,44.9265581 11.5756143,45.0587854 11.3918055,45.1866276 L11.3767353,45.1651051 C11.2036437,45.3023425 11.0253092,45.4348012 10.8413383,45.5624119 L10.8144041,45.5241922 C10.6467047,45.6573091 10.4739244,45.7858787 10.2959011,45.9096698 L10.2564548,45.8538271 C10.0945063,45.9830896 9.92744221,46.1080016 9.75549396,46.2284011 L9.75047057,46.2212269 C9.60246501,46.3381398 9.45002674,46.4514311 9.29322514,46.5607074 L9.27669655,46.5371021 C9.13408313,46.6498945 8.98746516,46.7589379 8.83625243,46.8641284 L8.81936506,46.8402571 C8.67707573,46.9535123 8.53022633,47.0627178 8.3790136,47.1679083 L8.35033163,47.1269462 C8.21346913,47.2358841 8.07233596,47.341432 7.9270362,47.4429995 L7.89741665,47.4004521 C7.76100559,47.5102811 7.6202312,47.6160951 7.47509348,47.717894 L7.46841494,47.7086024 C7.35101489,47.8014984 7.23032784,47.8911777 7.10644647,47.9782652 L7.09980262,47.9687768 C6.98263399,48.0615108 6.86168083,48.1515489 6.7376721,48.2382083 L6.73102825,48.2287199 C6.61398698,48.321882 6.49326524,48.411758 6.36902509,48.4985795 L6.350714,48.4724285 C6.23913424,48.5610767 6.12376995,48.6470289 6.00528071,48.729996 L5.98651818,48.702954 C5.87519313,48.7924585 5.76022231,48.8784801 5.64153634,48.9614125 L5.62747311,48.9410819 C5.5246295,49.0227506 5.4187883,49.1018623 5.30998419,49.1782202 L5.19541835,49.0146033 C7.87107663,47.1414321 8.59392078,43.4917963 6.83411327,40.7403812 L1,31.6181024 L1.16828159,31.5104446 L7.00239486,40.6327234 C8.25285054,42.5879975 8.28969476,44.9824606 7.29068069,46.9161647 Z M46.9161647,47.7093193 C44.9076593,46.4776306 42.2957511,46.4258262 40.1897956,47.7738577 L30.7060643,53.8436458 L30.5941354,53.6685256 L40.0778666,47.5987375 C42.1668355,46.2619103 44.7374227,46.2581501 46.7748793,47.3866211 C44.6636126,45.9968453 41.854112,45.9002603 39.6004027,47.3453697 L29.7270323,53.6760873 L29.6107049,53.4937003 L39.4840753,47.1629826 C41.6245824,45.7904129 44.2510146,45.7644491 46.3552773,46.8856318 C44.1747173,45.509197 41.3139085,45.4378469 39.0109752,46.9170783 L28.7484285,53.5084015 L28.6273091,53.3186782 L38.8900872,46.727193 C41.0235124,45.356823 43.6210407,45.2750498 45.7586992,46.2988698 C43.5214242,45.012846 40.6688393,44.9960931 38.3568567,46.4771774 L27.6716194,53.3236023 L27.5455459,53.1263114 L38.23098,46.2799212 C40.4199827,44.8773608 43.0784944,44.7753043 45.2864422,45.7916387 C42.9771429,44.5194887 40.0677526,44.5257842 37.7029002,46.0375078 L26.595007,53.1388378 L26.4637828,52.9339446 L37.5718728,45.8326493 C39.813317,44.3995769 42.5291089,44.2763814 44.8042906,45.2818516 C42.4258257,44.0269192 39.4634953,44.0573505 37.0489784,45.5976416 L25.5181979,52.9540386 L25.3820197,52.7415777 L36.9127655,45.3853775 C39.511058,43.7277867 42.7233023,43.7629242 45.2280393,45.2289764 C42.6443799,43.4374284 39.1416986,43.2766324 36.3443688,45.0679 L24.3434382,52.7529823 L24.2019586,52.5314726 L36.2028892,44.8463903 C38.863527,43.1423857 42.1421231,43.1486526 44.7281661,44.6057133 C42.0594523,42.8306099 38.4964605,42.7023869 35.6397593,44.5381584 L23.1688406,52.5521574 L23.0218975,52.3213675 L35.4928162,44.3073685 C38.1537078,42.5973231 41.4082589,42.5374805 44.0432611,43.8871431 C41.3013664,42.2141526 37.7428506,42.1514285 34.8708521,43.9968766 L21.8964658,52.3340918 L21.7434691,52.0939175 L34.7178207,43.7568991 C37.4438704,42.0051957 40.7683725,41.9179285 43.487099,43.256389 C40.658912,41.6022618 37.0354681,41.570688 34.1017135,43.4557568 L20.6238943,52.1159915 L20.4650407,51.8664676 L33.9428253,43.2064296 C36.6759797,41.4500964 39.9886467,41.3045525 42.7553735,42.5468054 C39.8556242,40.9833112 36.2246432,41.0094381 33.268046,42.9032588 L19.2535457,51.8806505 L19.0882103,51.6218696 L33.1027106,42.6444779 C36.2644671,40.6190743 40.1729163,40.6621577 43.2163796,42.4540467 C40.0844155,40.2793916 35.8402785,40.088877 32.4482543,42.2720669 L17.8829889,51.6464898 L17.7114839,51.3766814 L32.2767493,42.0022585 C35.44775,39.9612425 39.3398947,39.9288302 42.4484713,41.6068383 C39.2263046,39.5422487 34.9801761,39.4274523 31.5639337,41.6294969 L16.414655,51.3950884 L16.2363902,51.1141483 L31.3856689,41.3485568 C34.5753336,39.2925751 38.4654553,39.1922566 41.6415075,40.7671457 C38.3271693,38.8019291 34.0644439,38.7547985 30.6152808,40.9755833 L14.848544,51.1264463 L14.6629292,50.8342705 L30.429666,40.6834075 C33.6996012,38.5782901 37.6774485,38.4463784 40.9559257,40.0086973 C37.5361202,38.0652514 33.192162,38.0543072 29.6666279,40.3216698 L13.2824329,50.8578042 L13.0894682,50.5543926 L29.4736631,40.0182582 C33.1190413,37.6740502 37.6115541,37.6880635 41.1453222,39.7019112 C37.4930479,37.2338771 32.5933032,37.0456179 28.6673566,39.5774874 L11.6183367,50.5731017 L11.4177092,50.2567765 L28.4666944,39.2613589 C32.1409189,36.8916067 36.6412786,36.8289059 40.2598107,38.7347718 C36.4971741,36.37264 31.5722357,36.2616876 27.6032902,38.8222856 L9.85646324,50.2711585 L9.64758287,49.9418156 L27.3946066,38.4929774 C31.1609617,36.0631981 35.7608962,35.9626766 39.4970707,37.8548014 C35.6131131,35.516919 30.5959375,35.4493409 26.5394899,38.0667251 L8.09439309,49.9691806 L7.87742187,49.6270514 L26.3227154,37.7246305 C30.1206022,35.2736348 34.7340433,35.1022655 38.5520199,36.8905518 C34.5615183,34.6541737 29.5132578,34.658198 25.411126,37.299983 L6.23470786,49.6501934 L6.00892823,49.2947456 L25.1855084,36.9447667 C31.1593335,33.0974267 39.0758216,34.6665523 43.1331803,40.5019429 L43.1144349,40.5150685 C43.2753884,40.7193211 43.4310309,40.9295342 43.5811312,41.1458698 L43.5458853,41.1708941 C43.7025562,41.3695232 43.8543097,41.5741821 44.0007524,41.7848015 L43.9644187,41.8102425 C44.1217492,42.0085821 44.2735374,42.2130443 44.4201768,42.4236984 L44.3664516,42.4614896 C44.5199277,42.6540783 44.6680583,42.8528242 44.8106812,43.0574959 L44.7895869,43.0724388 C44.9265581,43.2458891 45.0587854,43.4243857 45.1866276,43.6081945 L45.1651051,43.6232647 C45.3023425,43.7963563 45.4348012,43.9746908 45.5624119,44.1586617 L45.5241922,44.1855959 C45.6573091,44.3532953 45.7858787,44.5260756 45.9096698,44.7040989 L45.8538271,44.7435452 C45.9830896,44.9054937 46.1080016,45.0725578 46.2284011,45.244506 L46.2212269,45.2495294 C46.3381398,45.397535 46.4514311,45.5499733 46.5607074,45.7067749 L46.5371021,45.7233035 C46.6498945,45.8659169 46.7589379,46.0125348 46.8641284,46.1637476 L46.8402571,46.1806349 C46.9535123,46.3229243 47.0627178,46.4697737 47.1679083,46.6209864 L47.1269462,46.6496684 C47.2358841,46.7865309 47.341432,46.927664 47.4429995,47.0729638 L47.4004521,47.1025834 C47.5102811,47.2389944 47.6160951,47.3797688 47.717894,47.5249065 L47.7086024,47.5315851 C47.8014984,47.6489851 47.8911777,47.7696722 47.9782652,47.8935535 L47.9687768,47.9001974 C48.0615108,48.017366 48.1515489,48.1383192 48.2382083,48.2623279 L48.2287199,48.2689717 C48.321882,48.386013 48.411758,48.5067348 48.4985795,48.6309749 L48.4724285,48.649286 C48.5610767,48.7608658 48.6470289,48.8762301 48.729996,48.9947193 L48.702954,49.0134818 C48.7924585,49.1248069 48.8784801,49.2397777 48.9614125,49.3584637 L48.9410819,49.3725269 C49.0227506,49.4753705 49.1018623,49.5812117 49.1782202,49.6900158 L49.0146033,49.8045816 C47.1414321,47.1289234 43.4917963,46.4060792 40.7403812,48.1658867 L31.6181024,54 L31.5104446,53.8317184 L40.6327234,47.9976051 C42.5879975,46.7471495 44.9824606,46.7103052 46.9161647,47.7093193 Z M47.7093193,8.08383534 C46.4776306,10.0923407 46.4258262,12.7042489 47.7738577,14.8102044 L53.8436458,24.2939357 L53.6685256,24.4058646 L47.5987375,14.9221334 C46.2619103,12.8331645 46.2581501,10.2625773 47.3866211,8.22512073 C45.9968453,10.3363874 45.9002603,13.145888 47.3453697,15.3995973 L53.6760873,25.2729677 L53.4937003,25.3892951 L47.1629826,15.5159247 C45.7904129,13.3754176 45.7644491,10.7489854 46.8856318,8.64472266 C45.509197,10.8252827 45.4378469,13.6860915 46.9170783,15.9890248 L53.5084015,26.2515715 L53.3186782,26.3726909 L46.727193,16.1099128 C45.356823,13.9764876 45.2750498,11.3789593 46.2988698,9.2413008 C45.012846,11.4785758 44.9960931,14.3311607 46.4771774,16.6431433 L53.3236023,27.3283806 L53.1263114,27.4544541 L46.2799212,16.76902 C44.8773608,14.5800173 44.7753043,11.9215056 45.7916387,9.71355776 C44.5194887,12.0228571 44.5257842,14.9322474 46.0375078,17.2970998 L53.1388378,28.404993 L52.9339446,28.5362172 L45.8326493,17.4281272 C44.3995769,15.186683 44.2763814,12.4708911 45.2818516,10.1957094 C44.0269192,12.5741743 44.0573505,15.5365047 45.5976416,17.9510216 L52.9540386,29.4818021 L52.7415777,29.6179803 L45.3853775,18.0872345 C43.7277867,15.488942 43.7629242,12.2766977 45.2289764,9.77196073 C43.4374284,12.3556201 43.2766324,15.8583014 45.0679,18.6556312 L52.7529823,30.6565618 L52.5314726,30.7980414 L44.8463903,18.7971108 C43.1423857,16.136473 43.1486526,12.8578769 44.6057133,10.2718339 C42.8306099,12.9405477 42.7023869,16.5035395 44.5381584,19.3602407 L52.5521574,31.8311594 L52.3213675,31.9781025 L44.3073685,19.5071838 C42.5973231,16.8462922 42.5374805,13.5917411 43.8871431,10.9567389 C42.2141526,13.6986336 42.1514285,17.2571494 43.9968766,20.1291479 L52.3340918,33.1035342 L52.0939175,33.2565309 L43.7568991,20.2821793 C42.0051957,17.5561296 41.9179285,14.2316275 43.256389,11.512901 C41.6022618,14.341088 41.570688,17.9645319 43.4557568,20.8982865 L52.1159915,34.3761057 L51.8664676,34.5349593 L43.2064296,21.0571747 C41.4500964,18.3240203 41.3045525,15.0113533 42.5468054,12.2446265 C40.9833112,15.1443758 41.0094381,18.7753568 42.9032588,21.731954 L51.8806505,35.7464543 L51.6218696,35.9117897 L42.6444779,21.8972894 C40.6190743,18.7355329 40.6621577,14.8270837 42.4540467,11.7836204 C40.2793916,14.9155845 40.088877,19.1597215 42.2720669,22.5517457 L51.6464898,37.1170111 L51.3766814,37.2885161 L42.0022585,22.7232507 C39.9612425,19.55225 39.9288302,15.6601053 41.6068383,12.5515287 C39.5422487,15.7736954 39.4274523,20.0198239 41.6294969,23.4360663 L51.3950884,38.585345 L51.1141483,38.7636098 L41.3485568,23.6143311 C39.2925751,20.4246664 39.1922566,16.5345447 40.7671457,13.3584925 C38.8019291,16.6728307 38.7547985,20.9355561 40.9755833,24.3847192 L51.1264463,40.151456 L50.8342705,40.3370708 L40.6834075,24.570334 C38.5782901,21.3003988 38.4463784,17.3225515 40.0086973,14.0440743 C38.0652514,17.4638798 38.0543072,21.807838 40.3216698,25.3333721 L50.8578042,41.7175671 L50.5543926,41.9105318 L40.0182582,25.5263369 C37.6740502,21.8809587 37.6880635,17.3884459 39.7019112,13.8546778 C37.2338771,17.5069521 37.0456179,22.4066968 39.5774874,26.3326434 L50.5731017,43.3816633 L50.2567765,43.5822908 L39.2613589,26.5333056 C36.8916067,22.8590811 36.8289059,18.3587214 38.7347718,14.7401893 C36.37264,18.5028259 36.2616876,23.4277643 38.8222856,27.3967098 L50.2711585,45.1435368 L49.9418156,45.3524171 L38.4929774,27.6053934 C36.0631981,23.8390383 35.9626766,19.2391038 37.8548014,15.5029293 C35.516919,19.3868869 35.4493409,24.4040625 38.0667251,28.4605101 L49.9691806,46.9056069 L49.6270514,47.1225781 L37.7246305,28.6772846 C35.2736348,24.8793978 35.1022655,20.2659567 36.8905518,16.4479801 C34.6541737,20.4384817 34.658198,25.4867422 37.299983,29.588874 L49.6501934,48.7652921 L49.2947456,48.9910718 L36.9447667,29.8144916 C33.0974267,23.8406665 34.6665523,15.9241784 40.5019429,11.8668197 L40.5150685,11.8855651 C40.7193211,11.7246116 40.9295342,11.5689691 41.1458698,11.4188688 L41.1708941,11.4541147 C41.3695232,11.2974438 41.5741821,11.1456903 41.7848015,10.9992476 L41.8102425,11.0355813 C42.0085821,10.8782508 42.2130443,10.7264626 42.4236984,10.5798232 L42.4614896,10.6335484 C42.6540783,10.4800723 42.8528242,10.3319417 43.0574959,10.1893188 L43.0724388,10.2104131 C43.2458891,10.0734419 43.4243857,9.94121456 43.6081945,9.81337243 L43.6232647,9.83489489 C43.7963563,9.69765751 43.9746908,9.56519878 44.1586617,9.43758808 L44.1855959,9.47580777 C44.3532953,9.3426909 44.5260756,9.21412125 44.7040989,9.09033025 L44.7435452,9.14617288 C44.9054937,9.0169104 45.0725578,8.89199841 45.244506,8.77159895 L45.2495294,8.7787731 C45.397535,8.66186025 45.5499733,8.54856893 45.7067749,8.4392926 L45.7233035,8.46289787 C45.8659169,8.35010553 46.0125348,8.24106207 46.1637476,8.13587155 L46.1806349,8.15974294 C46.3229243,8.04648775 46.4697737,7.93728224 46.6209864,7.83209173 L46.6496684,7.87305383 C46.7865309,7.76411587 46.927664,7.65856802 47.0729638,7.55700047 L47.1025834,7.59954786 C47.2389944,7.48971889 47.3797688,7.38390493 47.5249065,7.28210596 L47.5315851,7.29139762 C47.6489851,7.19850164 47.7696722,7.10882232 47.8935535,7.02173476 L47.9001974,7.03122315 C48.017366,6.93848922 48.1383192,6.84845112 48.2623279,6.76179172 L48.2689717,6.77128011 C48.386013,6.67811802 48.5067348,6.58824197 48.6309749,6.50142052 L48.649286,6.52757146 C48.7608658,6.43892335 48.8762301,6.35297106 48.9947193,6.270004 L49.0134818,6.29704596 C49.1248069,6.20754152 49.2397777,6.12151986 49.3584637,6.03858749 L49.3725269,6.05891814 C49.4753705,5.97724936 49.5812117,5.89813766 49.6900158,5.82177976 L49.8045816,5.98539673 C47.1289234,7.85856794 46.4060792,11.5082037 48.1658867,14.2596188 L54,23.3818976 L53.8317184,23.4895554 L47.9976051,14.3672766 C46.7471495,12.4120025 46.7103052,10.0175394 47.7093193,8.08383534 Z M8.08383534,7.29068069 C10.0923407,8.52236945 12.7042489,8.5741738 14.8102044,7.22614228 L24.2939357,1.1563542 L24.4058646,1.33147445 L14.9221334,7.40126253 C12.8331645,8.73808966 10.2625773,8.74184994 8.22512073,7.61337894 C10.3363874,9.00315474 13.145888,9.09973968 15.3995973,7.65463035 L25.2729677,1.32391267 L25.3892951,1.50629974 L15.5159247,7.83701742 C13.3754176,9.20958711 10.7489854,9.23555093 8.64472266,8.11436823 C10.8252827,9.49080304 13.6860915,9.56215314 15.9890248,8.08292168 L26.2515715,1.49159849 L26.3726909,1.68132176 L16.1099128,8.27280699 C13.9764876,9.64317695 11.3789593,9.72495015 9.2413008,8.70113023 C11.4785758,9.987154 14.3311607,10.0039069 16.6431433,8.52282263 L27.3283806,1.67639771 L27.4544541,1.8736886 L16.76902,8.72007883 C14.5800173,10.1226392 11.9215056,10.2246957 9.71355776,9.20836126 C12.0228571,10.4805113 14.9322474,10.4742158 17.2970998,8.96249216 L28.404993,1.86116223 L28.5362172,2.06605544 L17.4281272,9.16735067 C15.186683,10.6004231 12.4708911,10.7236186 10.1957094,9.7181484 C12.5741743,10.9730808 15.5365047,10.9426495 17.9510216,9.40235842 L29.4818021,2.04596145 L29.6179803,2.25842227 L18.0872345,9.61462251 C15.488942,11.2722133 12.2766977,11.2370758 9.77196073,9.77102359 C12.3556201,11.5625716 15.8583014,11.7233676 18.6556312,9.93210001 L30.6565618,2.24701774 L30.7980414,2.46852739 L18.7971108,10.1536097 C16.136473,11.8576143 12.8578769,11.8513474 10.2718339,10.3942867 C12.9405477,12.1693901 16.5035395,12.2976131 19.3602407,10.4618416 L31.8311594,2.4478426 L31.9781025,2.67863251 L19.5071838,10.6926315 C16.8462922,12.4026769 13.5917411,12.4625195 10.9567389,11.1128569 C13.6986336,12.7858474 17.2571494,12.8485715 20.1291479,11.0031234 L33.1035342,2.66590821 L33.2565309,2.90608245 L20.2821793,11.2431009 C17.5561296,12.9948043 14.2316275,13.0820715 11.512901,11.743611 C14.341088,13.3977382 17.9645319,13.429312 20.8982865,11.5442432 L34.3761057,2.88400851 L34.5349593,3.13353239 L21.0571747,11.7935704 C18.3240203,13.5499036 15.0113533,13.6954475 12.2446265,12.4531946 C15.1443758,14.0166888 18.7753568,13.9905619 21.731954,12.0967412 L35.7464543,3.11934955 L35.9117897,3.3781304 L21.8972894,12.3555221 C18.7355329,14.3809257 14.8270837,14.3378423 11.7836204,12.5459533 C14.9155845,14.7206084 19.1597215,14.911123 22.5517457,12.7279331 L37.1170111,3.35351018 L37.2885161,3.62331862 L22.7232507,12.9977415 C19.55225,15.0387575 15.6601053,15.0711698 12.5515287,13.3931617 C15.7736954,15.4577513 20.0198239,15.5725477 23.4360663,13.3705031 L38.585345,3.60491157 L38.7636098,3.88585166 L23.6143311,13.6514432 C20.4246664,15.7074249 16.5345447,15.8077434 13.3584925,14.2328543 C16.6728307,16.1980709 20.9355561,16.2452015 24.3847192,14.0244167 L40.151456,3.87355369 L40.3370708,4.1657295 L24.570334,14.3165925 C21.3003988,16.4217099 17.3225515,16.5536216 14.0440743,14.9913027 C17.4638798,16.9347486 21.807838,16.9456928 25.3333721,14.6783302 L41.7175671,4.14219582 L41.9105318,4.44560735 L25.5263369,14.9817418 C21.8809587,17.3259498 17.3884459,17.3119365 13.8546778,15.2980888 C17.5069521,17.7661229 22.4066968,17.9543821 26.3326434,15.4225126 L43.3816633,4.42689829 L43.5822908,4.74322348 L26.5333056,15.7386411 C22.8590811,18.1083933 18.3587214,18.1710941 14.7401893,16.2652282 C18.5028259,18.62736 23.4277643,18.7383124 27.3967098,16.1777144 L45.1435368,4.7288415 L45.3524171,5.05818443 L27.6053934,16.5070226 C23.8390383,18.9368019 19.2391038,19.0373234 15.5029293,17.1451986 C19.3868869,19.483081 24.4040625,19.5506591 28.4605101,16.9332749 L46.9056069,5.0308194 L47.1225781,5.37294864 L28.6772846,17.2753695 C24.8793978,19.7263652 20.2659567,19.8977345 16.4479801,18.1094482 C20.4384817,20.3458263 25.4867422,20.341802 29.588874,17.700017 L48.7652921,5.34980662 L48.9910718,5.70525441 L29.8144916,18.0552333 C23.8406665,21.9025733 15.9241784,20.3334477 11.8668197,14.4980571 L11.8855651,14.4849315 C11.7246116,14.2806789 11.5689691,14.0704658 11.4188688,13.8541302 L11.4541147,13.8291059 C11.2974438,13.6304768 11.1456903,13.4258179 10.9992476,13.2151985 L11.0355813,13.1897575 C10.8782508,12.9914179 10.7264626,12.7869557 10.5798232,12.5763016 L10.6335484,12.5385104 C10.4800723,12.3459217 10.3319417,12.1471758 10.1893188,11.9425041 L10.2104131,11.9275612 C10.0734419,11.7541109 9.94121456,11.5756143 9.81337243,11.3918055 L9.83489489,11.3767353 C9.69765751,11.2036437 9.56519878,11.0253092 9.43758808,10.8413383 L9.47580777,10.8144041 C9.3426909,10.6467047 9.21412125,10.4739244 9.09033025,10.2959011 L9.14617288,10.2564548 C9.0169104,10.0945063 8.89199841,9.92744221 8.77159895,9.75549396 L8.7787731,9.75047057 C8.66186025,9.60246501 8.54856893,9.45002674 8.4392926,9.29322514 L8.46289787,9.27669655 C8.35010553,9.13408313 8.24106207,8.98746516 8.13587155,8.83625243 L8.15974294,8.81936506 C8.04648775,8.67707573 7.93728224,8.53022633 7.83209173,8.3790136 L7.87305383,8.35033163 C7.76411587,8.21346913 7.65856802,8.07233596 7.55700047,7.9270362 L7.59954786,7.89741665 C7.48971889,7.76100559 7.38390493,7.6202312 7.28210596,7.47509348 L7.29139762,7.46841494 C7.19850164,7.35101489 7.10882232,7.23032784 7.02173476,7.10644647 L7.03122315,7.09980262 C6.93848922,6.98263399 6.84845112,6.86168083 6.76179172,6.7376721 L6.77128011,6.73102825 C6.67811802,6.61398698 6.58824197,6.49326524 6.50142052,6.36902509 L6.52757146,6.350714 C6.43892335,6.23913424 6.35297106,6.12376995 6.270004,6.00528071 L6.29704596,5.98651818 C6.20754152,5.87519313 6.12151986,5.76022231 6.03858749,5.64153634 L6.05891814,5.62747311 C5.97724936,5.5246295 5.89813766,5.4187883 5.82177976,5.30998419 L5.98539673,5.19541835 C7.85856794,7.87107663 11.5082037,8.59392078 14.2596188,6.83411327 L23.3818976,1 L23.4895554,1.16828159 L14.3672766,7.00239486 C12.4120025,8.25285054 10.0175394,8.28969476 8.08383534,7.29068069 Z" fill="#FF7443" transform="translate(27.500000, 27.500000) rotate(2.000000) translate(-27.500000, -27.500000) "></path>
                    <path d="M65,33.728 L66.914,31.99 C67.4273359,32.6500033 68.0543296,33.1119987 68.795,33.376 C69.5356704,33.6400013 70.3093293,33.772 71.116,33.772 C71.7613366,33.772 72.3699971,33.6693344 72.942,33.464 C73.5140029,33.2586656 74.0236644,32.9616686 74.471,32.573 C74.9183356,32.1843314 75.2886652,31.7076695 75.582,31.143 C75.8753348,30.5783305 76.0733328,29.9366703 76.176,29.218 L68.014,29.218 L68.014,26.908 L76.154,26.908 C76.0219993,26.23333 75.8056682,25.6320026 75.505,25.104 C75.2043318,24.5759974 74.8303356,24.1286685 74.383,23.762 C73.9356644,23.3953315 73.4296695,23.113001 72.865,22.915 C72.3003305,22.716999 71.6953366,22.618 71.05,22.618 C70.0379949,22.618 69.19467,22.8123314 68.52,23.201 C67.84533,23.5896686 67.3613348,24.0333308 67.068,24.532 L65.286,22.64 C65.8433361,21.8626628 66.6463281,21.2320024 67.695,20.748 C68.7436719,20.2639976 69.9426599,20.022 71.292,20.022 C72.5386729,20.022 73.656995,20.2273313 74.647,20.638 C75.6370049,21.0486687 76.4729966,21.6169964 77.155,22.343 C77.8370034,23.0690036 78.3613315,23.9306617 78.728,24.928 C79.0946685,25.9253383 79.278,27.0179941 79.278,28.206 C79.278,29.3940059 79.080002,30.4866617 78.684,31.484 C78.287998,32.4813383 77.7270036,33.3429964 77.001,34.069 C76.2749964,34.7950036 75.4096717,35.3633313 74.405,35.774 C73.4003283,36.1846687 72.2820062,36.39 71.05,36.39 C69.641993,36.39 68.4210052,36.1443358 67.387,35.653 C66.3529948,35.1616642 65.5573361,34.520004 65,33.728 Z M82.272,35.994 L82.272,20.418 L85.154,20.418 L85.154,26.468 C85.4473348,26.468 85.7296653,26.4753333 86.001,26.49 C86.2723347,26.5046667 86.5326654,26.5266665 86.782,26.556 L92.018,20.418 L95.164,20.418 L89.642,27.216 C91.1820077,27.8320031 92.4213286,28.8513262 93.36,30.274 C94.2986714,31.6966738 94.9733313,33.6033214 95.384,35.994 L92.238,35.994 C92.0179989,34.7473271 91.7210019,33.6730045 91.347,32.771 C90.9729981,31.8689955 90.5036695,31.1283362 89.939,30.549 C89.3743305,29.9696638 88.6996706,29.5480013 87.915,29.284 C87.1303294,29.0199987 86.2100053,28.9026665 85.154,28.932 L85.154,35.994 L82.272,35.994 Z M113.866,28.162 C113.866,29.3793394 113.657002,30.4939949 113.239,31.506 C112.820998,32.5180051 112.24167,33.3869964 111.501,34.113 C110.76033,34.8390036 109.880338,35.4036646 108.861,35.807 C107.841662,36.2103354 106.730673,36.412 105.528,36.412 C104.339994,36.412 103.236338,36.2103354 102.217,35.807 C101.197662,35.4036646 100.314004,34.8390036 99.566,34.113 C98.8179963,33.3869964 98.2350021,32.5180051 97.817,31.506 C97.3989979,30.4939949 97.19,29.3793394 97.19,28.162 C97.19,26.9446606 97.3989979,25.8336717 97.817,24.829 C98.2350021,23.8243283 98.8179963,22.9663369 99.566,22.255 C100.314004,21.5436631 101.197662,20.990002 102.217,20.594 C103.236338,20.197998 104.339994,20 105.528,20 C106.730673,20 107.841662,20.197998 108.861,20.594 C109.880338,20.990002 110.76033,21.5436631 111.501,22.255 C112.24167,22.9663369 112.820998,23.8243283 113.239,24.829 C113.657002,25.8336717 113.866,26.9446606 113.866,28.162 Z M110.786,28.162 C110.786,27.3993295 110.661335,26.6770034 110.412,25.995 C110.162665,25.3129966 109.810669,24.7226692 109.356,24.224 C108.901331,23.7253308 108.34767,23.3293348 107.695,23.036 C107.04233,22.7426652 106.320004,22.596 105.528,22.596 C104.735996,22.596 104.017337,22.7426652 103.372,23.036 C102.726663,23.3293348 102.176669,23.7253308 101.722,24.224 C101.267331,24.7226692 100.915335,25.3129966 100.666,25.995 C100.416665,26.6770034 100.292,27.3993295 100.292,28.162 C100.292,28.954004 100.416665,29.6909966 100.666,30.373 C100.915335,31.0550034 101.267331,31.6489975 101.722,32.155 C102.176669,32.6610025 102.726663,33.0569986 103.372,33.343 C104.017337,33.6290014 104.735996,33.772 105.528,33.772 C106.320004,33.772 107.038663,33.6290014 107.684,33.343 C108.329337,33.0569986 108.882998,32.6610025 109.345,32.155 C109.807002,31.6489975 110.162665,31.0550034 110.412,30.373 C110.661335,29.6909966 110.786,28.954004 110.786,28.162 Z M122.888,35.994 L120.006,35.994 L120.006,22.904 L115.276,22.904 L115.276,20.418 L127.618,20.418 L127.618,22.904 L122.888,22.904 L122.888,35.994 Z M132.592,33.508 L140.27,33.508 L140.27,35.994 L129.776,35.994 L129.776,20.418 L139.94,20.418 L139.94,22.904 L132.592,22.904 L132.592,26.798 L139.5,26.798 L139.5,29.152 L132.592,29.152 L132.592,33.508 Z M148.896,25.83 L152.328,20.418 L155.694,20.418 L150.678,27.788 L156.354,35.994 L152.768,35.994 L148.83,29.878 L144.958,35.994 L141.482,35.994 L147.048,27.788 L141.944,20.418 L145.464,20.418 L148.896,25.83 Z" id="ЭКОТЕХ" fill="#141720"></path>
                </g>
            </g>
        </g>
    </g>
</svg>