<svg xmlns="http://www.w3.org/2000/svg" width="55" height="55" viewBox="0 0 55 55">
    <path fill="#FF7443" fill-rule="evenodd" d="M6.625 46.199a6.332 6.332 0 0 0 .17-6.724l-5.734-9.69.178-.106 5.736 9.69a6.538 6.538 0 0 1-.022 6.7 6.582 6.582 0 0 0 .291-7.169L1.262 28.812l.186-.11 5.983 10.089a6.796 6.796 0 0 1 .037 6.876 6.832 6.832 0 0 0 .225-7.34L1.463 27.84l.195-.114 6.229 10.486a7.053 7.053 0 0 1 .188 6.88 7.127 7.127 0 0 0 .08-7.404L1.686 26.77l.202-.119L8.357 37.57a7.357 7.357 0 0 1 .242 7.068 7.422 7.422 0 0 0 .019-7.587L1.908 25.7l.21-.123 6.709 11.349a7.66 7.66 0 0 1 .298 7.247 7.716 7.716 0 0 0-.045-7.761l-6.95-11.78.218-.13 6.949 11.78a7.97 7.97 0 0 1-.134 8.317 8.01 8.01 0 0 0 .471-8.873L2.373 23.464l.226-.134L9.86 35.592a8.27 8.27 0 0 1-.057 8.529 8.299 8.299 0 0 0 .385-9.08L2.614 22.296l.236-.139 7.574 12.743a8.568 8.568 0 0 1 .121 8.56 8.634 8.634 0 0 0 .21-9.17L2.878 21.033l.245-.144 7.88 13.257a8.913 8.913 0 0 1 .193 8.781 8.969 8.969 0 0 0 .129-9.386L3.139 19.769l.255-.15 8.184 13.772a9.258 9.258 0 0 1 .352 8.83 9.348 9.348 0 0 0-.025-9.494l-8.483-14.32.264-.156 8.483 14.32a9.655 9.655 0 0 1-.162 10.114 9.68 9.68 0 0 0 .557-10.755l-8.86-14.884.275-.162 8.86 14.884a9.995 9.995 0 0 1 .041 10.179 10.055 10.055 0 0 0 .357-10.879l-9.23-15.48.286-.169L13.524 30.9a10.382 10.382 0 0 1 .223 10.27 10.475 10.475 0 0 0 .177-11.027L4.329 14.032l.299-.176 9.594 16.112a10.815 10.815 0 0 1 .307 10.543 10.894 10.894 0 0 0 .082-11.293L4.653 12.476l.31-.182 9.957 16.742a11.253 11.253 0 0 1-.09 11.675 11.312 11.312 0 0 0 .56-12.466L4.994 10.823l.323-.19 10.394 17.423a11.68 11.68 0 0 1 .115 11.804 11.772 11.772 0 0 0 .354-12.652L5.358 9.073l.337-.198 10.822 18.136a12.154 12.154 0 0 1 .216 12.117 12.232 12.232 0 0 0 .24-12.957L5.722 7.322l.35-.205 11.25 18.85a12.628 12.628 0 0 1 .407 12.25 12.737 12.737 0 0 0 .05-13.147L6.105 5.475l.364-.214 11.673 19.596A13.156 13.156 0 0 1 13.96 42.67l-.012-.02c-.21.154-.425.303-.647.445l-.024-.036c-.204.15-.413.294-.629.433l-.024-.037c-.204.15-.413.295-.63.434l-.035-.055a11.57 11.57 0 0 1-.611.423l-.014-.021c-.178.13-.361.256-.55.378l-.014-.022c-.178.13-.36.257-.549.378l-.025-.04c-.173.128-.35.25-.532.368l-.038-.057a9.969 9.969 0 0 1-.513.357l-.005-.008c-.152.112-.308.22-.469.324l-.016-.024a8.935 8.935 0 0 1-.451.311l-.016-.024a8.515 8.515 0 0 1-.452.312l-.027-.042c-.14.104-.285.204-.434.3l-.028-.043a7.98 7.98 0 0 1-.433.303l-.007-.01c-.12.089-.244.174-.37.257l-.007-.01c-.12.089-.244.175-.371.257l-.007-.01c-.12.09-.244.175-.37.257l-.018-.026a7.128 7.128 0 0 1-.355.245l-.017-.028a6.405 6.405 0 0 1-.354.246l-.013-.02a6.694 6.694 0 0 1-.326.226l-.109-.168a6.093 6.093 0 0 0 1.927-8.212l-5.513-9.32.172-.102 5.513 9.32a6.292 6.292 0 0 1 .068 6.29zM46.2 48.375a6.332 6.332 0 0 0-6.724-.17l-9.69 5.734-.106-.178 9.69-5.736a6.538 6.538 0 0 1 6.7.022 6.582 6.582 0 0 0-7.169-.291l-10.088 5.982-.11-.186 10.089-5.983a6.796 6.796 0 0 1 6.876-.037 6.832 6.832 0 0 0-7.34-.225l-10.487 6.23-.114-.195 10.486-6.229a7.053 7.053 0 0 1 6.88-.188 7.127 7.127 0 0 0-7.404-.08L26.77 53.314l-.119-.202 10.918-6.469a7.357 7.357 0 0 1 7.068-.242 7.422 7.422 0 0 0-7.587-.019l-11.35 6.71-.123-.21 11.349-6.709a7.66 7.66 0 0 1 7.247-.298 7.716 7.716 0 0 0-7.761.045l-11.78 6.95-.13-.218 11.78-6.949a7.97 7.97 0 0 1 8.317.134 8.01 8.01 0 0 0-8.873-.471l-12.262 7.261-.134-.226 12.262-7.261a8.27 8.27 0 0 1 8.529.057 8.299 8.299 0 0 0-9.08-.385l-12.744 7.574-.139-.236 12.743-7.574a8.568 8.568 0 0 1 8.56-.121 8.634 8.634 0 0 0-9.17-.21l-13.258 7.878-.144-.245 13.257-7.88a8.913 8.913 0 0 1 8.781-.193 8.969 8.969 0 0 0-9.386-.129l-13.772 8.185-.15-.255 13.772-8.184a9.258 9.258 0 0 1 8.83-.352 9.348 9.348 0 0 0-9.494.025l-14.32 8.483-.156-.264 14.32-8.483a9.655 9.655 0 0 1 10.114.162 9.68 9.68 0 0 0-10.755-.557l-14.884 8.86-.162-.275 14.884-8.86a9.995 9.995 0 0 1 10.179-.041 10.055 10.055 0 0 0-10.879-.357l-15.48 9.23-.169-.286L30.9 41.476a10.382 10.382 0 0 1 10.27-.223 10.475 10.475 0 0 0-11.027-.177l-16.111 9.595-.176-.299 16.112-9.594a10.815 10.815 0 0 1 10.543-.307 10.894 10.894 0 0 0-11.293-.082l-16.742 9.958-.182-.31 16.742-9.957a11.253 11.253 0 0 1 11.675.09 11.312 11.312 0 0 0-12.466-.56L10.823 50.006l-.19-.323 17.423-10.394a11.68 11.68 0 0 1 11.804-.115 11.772 11.772 0 0 0-12.652-.354L9.073 49.642l-.198-.337 18.136-10.822a12.154 12.154 0 0 1 12.117-.216 12.232 12.232 0 0 0-12.957-.24L7.322 49.278l-.205-.35 18.85-11.25a12.628 12.628 0 0 1 12.25-.407 12.737 12.737 0 0 0-13.147-.05L5.475 48.895l-.214-.364 19.596-11.673A13.156 13.156 0 0 1 42.67 41.04l-.02.012c.154.21.303.425.445.647l-.036.024c.15.204.294.413.433.629l-.037.024c.15.204.295.413.434.63l-.055.035c.147.198.288.402.423.611l-.021.014c.13.178.256.361.378.55l-.022.014c.13.178.257.36.378.549l-.04.025c.128.173.25.35.368.532l-.057.038c.123.166.242.337.357.513l-.008.005c.112.152.22.308.324.469l-.024.016c.107.146.211.296.311.451l-.024.016c.108.146.212.297.312.452l-.042.027c.104.14.204.285.3.434l-.043.028c.105.14.206.285.303.433l-.01.007c.089.12.174.244.257.37l-.01.007c.089.12.175.244.257.371l-.01.007c.09.12.175.244.257.37l-.026.018c.084.115.166.233.245.355l-.028.017c.086.115.168.233.246.354l-.02.013c.078.106.153.215.226.326l-.168.109a6.093 6.093 0 0 0-8.212-1.927l-9.32 5.513-.102-.172 9.32-5.513a6.292 6.292 0 0 1 6.29-.068zM48.375 8.8a6.332 6.332 0 0 0-.17 6.724l5.734 9.69-.178.106-5.736-9.69a6.538 6.538 0 0 1 .022-6.7 6.582 6.582 0 0 0-.291 7.169l5.982 10.088-.186.11-5.983-10.089a6.796 6.796 0 0 1-.037-6.876 6.832 6.832 0 0 0-.225 7.34l6.23 10.487-.195.114-6.229-10.486a7.053 7.053 0 0 1-.188-6.88 7.127 7.127 0 0 0-.08 7.404l6.469 10.918-.202.119-6.469-10.918a7.357 7.357 0 0 1-.242-7.068 7.422 7.422 0 0 0-.019 7.587l6.71 11.35-.21.123-6.709-11.349a7.66 7.66 0 0 1-.298-7.247 7.716 7.716 0 0 0 .045 7.761l6.95 11.78-.218.13-6.949-11.78a7.97 7.97 0 0 1 .134-8.317 8.01 8.01 0 0 0-.471 8.873l7.261 12.262-.226.134-7.261-12.262a8.27 8.27 0 0 1 .057-8.529 8.299 8.299 0 0 0-.385 9.08l7.574 12.744-.236.139-7.574-12.743a8.568 8.568 0 0 1-.121-8.56 8.634 8.634 0 0 0-.21 9.17l7.878 13.258-.245.144-7.88-13.257a8.913 8.913 0 0 1-.193-8.781 8.969 8.969 0 0 0-.129 9.386l8.185 13.772-.255.15-8.184-13.772a9.258 9.258 0 0 1-.352-8.83 9.348 9.348 0 0 0 .025 9.494l8.483 14.32-.264.156-8.483-14.32a9.655 9.655 0 0 1 .162-10.114 9.68 9.68 0 0 0-.557 10.755l8.86 14.884-.275.162-8.86-14.884a9.995 9.995 0 0 1-.041-10.179 10.055 10.055 0 0 0-.357 10.879l9.23 15.48-.286.169L41.476 24.1a10.382 10.382 0 0 1-.223-10.27 10.475 10.475 0 0 0-.177 11.027l9.595 16.111-.299.176-9.594-16.112a10.815 10.815 0 0 1-.307-10.543 10.894 10.894 0 0 0-.082 11.293l9.958 16.742-.31.182-9.957-16.742a11.253 11.253 0 0 1 .09-11.675 11.312 11.312 0 0 0-.56 12.466l10.395 17.422-.323.19-10.394-17.423a11.68 11.68 0 0 1-.115-11.804 11.772 11.772 0 0 0-.354 12.652l10.823 18.135-.337.198-10.822-18.136a12.154 12.154 0 0 1-.216-12.117 12.232 12.232 0 0 0-.24 12.957l11.251 18.849-.35.205-11.25-18.85a12.628 12.628 0 0 1-.407-12.25 12.737 12.737 0 0 0-.05 13.147l11.674 19.595-.364.214-11.673-19.596A13.156 13.156 0 0 1 41.04 12.33l.012.02c.21-.154.425-.303.647-.445l.024.036c.204-.15.413-.294.629-.433l.024.037c.204-.15.413-.295.63-.434l.035.055c.198-.147.402-.288.611-.423l.014.021c.178-.13.361-.256.55-.378l.014.022c.178-.13.36-.257.549-.378l.025.04c.173-.128.35-.25.532-.368l.038.057c.166-.123.337-.242.513-.357l.005.008c.152-.112.308-.22.469-.324l.016.024c.146-.107.296-.211.451-.311l.016.024c.146-.108.297-.212.452-.312l.027.042c.14-.104.285-.204.434-.3l.028.043a7.98 7.98 0 0 1 .433-.303l.007.01c.12-.089.244-.174.37-.257l.007.01c.12-.089.244-.175.371-.257l.007.01c.12-.09.244-.175.37-.257l.018.026c.115-.084.233-.166.355-.245l.017.028c.115-.086.233-.168.354-.246l.013.02c.106-.078.215-.153.326-.226l.109.168a6.093 6.093 0 0 0-1.927 8.212l5.513 9.32-.172.102-5.513-9.32a6.292 6.292 0 0 1-.068-6.29zM8.8 6.625a6.332 6.332 0 0 0 6.724.17l9.69-5.734.106.178-9.69 5.736a6.538 6.538 0 0 1-6.7-.022 6.582 6.582 0 0 0 7.169.291l10.088-5.982.11.186-10.089 5.983a6.796 6.796 0 0 1-6.876.037 6.832 6.832 0 0 0 7.34.225l10.487-6.23.114.195-10.486 6.229a7.053 7.053 0 0 1-6.88.188 7.127 7.127 0 0 0 7.404.08L28.23 1.686l.119.202L17.43 8.357a7.357 7.357 0 0 1-7.068.242 7.422 7.422 0 0 0 7.587.019l11.35-6.71.123.21-11.349 6.709a7.66 7.66 0 0 1-7.247.298 7.716 7.716 0 0 0 7.761-.045l11.78-6.95.13.218-11.78 6.949a7.97 7.97 0 0 1-8.317-.134 8.01 8.01 0 0 0 8.873.471l12.262-7.261.134.226L19.408 9.86a8.27 8.27 0 0 1-8.529-.057 8.299 8.299 0 0 0 9.08.385l12.744-7.574.139.236-12.743 7.574a8.568 8.568 0 0 1-8.56.121 8.634 8.634 0 0 0 9.17.21l13.258-7.878.144.245-13.257 7.88a8.913 8.913 0 0 1-8.781.193 8.969 8.969 0 0 0 9.386.129l13.772-8.185.15.255-13.772 8.184a9.258 9.258 0 0 1-8.83.352 9.348 9.348 0 0 0 9.494-.025l14.32-8.483.156.264-14.32 8.483a9.655 9.655 0 0 1-10.114-.162 9.68 9.68 0 0 0 10.755.557l14.884-8.86.162.275-14.884 8.86a9.995 9.995 0 0 1-10.179.041 10.055 10.055 0 0 0 10.879.357l15.48-9.23.169.286L24.1 13.524a10.382 10.382 0 0 1-10.27.223 10.475 10.475 0 0 0 11.027.177l16.111-9.595.176.299-16.112 9.594a10.815 10.815 0 0 1-10.543.307 10.894 10.894 0 0 0 11.293.082l16.742-9.958.182.31-16.742 9.957a11.253 11.253 0 0 1-11.675-.09 11.312 11.312 0 0 0 12.466.56L44.177 4.994l.19.323-17.423 10.394a11.68 11.68 0 0 1-11.804.115 11.772 11.772 0 0 0 12.652.354L45.927 5.358l.198.337-18.136 10.822a12.154 12.154 0 0 1-12.117.216 12.232 12.232 0 0 0 12.957.24L47.678 5.722l.205.35-18.85 11.25a12.628 12.628 0 0 1-12.25.407 12.737 12.737 0 0 0 13.147.05L49.525 6.105l.214.364-19.596 11.673A13.156 13.156 0 0 1 12.33 13.96l.02-.012c-.154-.21-.303-.425-.445-.647l.036-.024c-.15-.204-.294-.413-.433-.629l.037-.024c-.15-.204-.295-.413-.434-.63l.055-.035a11.57 11.57 0 0 1-.423-.611l.021-.014a10.98 10.98 0 0 1-.378-.55l.022-.014c-.13-.178-.257-.36-.378-.549l.04-.025c-.128-.173-.25-.35-.368-.532l.057-.038a9.969 9.969 0 0 1-.357-.513l.008-.005a9.506 9.506 0 0 1-.324-.469l.024-.016a8.935 8.935 0 0 1-.311-.451l.024-.016a8.515 8.515 0 0 1-.312-.452l.042-.027a8.494 8.494 0 0 1-.3-.434l.043-.028a7.98 7.98 0 0 1-.303-.433l.01-.007a7.963 7.963 0 0 1-.257-.37l.01-.007a7.584 7.584 0 0 1-.257-.371l.01-.007a7.242 7.242 0 0 1-.257-.37l.026-.018a7.128 7.128 0 0 1-.245-.355l.028-.017a6.405 6.405 0 0 1-.246-.354l.02-.013a6.693 6.693 0 0 1-.226-.326l.168-.109a6.093 6.093 0 0 0 8.212 1.927l9.32-5.513.102.172-9.32 5.513a6.292 6.292 0 0 1-6.29.068z"/>
</svg>
